# xmcd
#
# Track frame offsets:
#	150
#	15173
#	36012
#	67073
#	83602
#	100078
#	131044
#	149817
#	180811
#
# Disc length: 2649 seconds
#
# Revision: 1
# Processed by: cddbd v1.5.2PL0 Copyright (c) Steve Scherf et al.
# Submitted via: audiograbber 1.83.01
#
DISCID=6d0a5709
DTITLE=Cobra Starship Ft Leighton Meester - Good Girls Go Bad - Fueled By Ramen
DTITLE=/Decaydance
DYEAR=2009
DGENRE=Dance
TTITLE0=Good Girls Go Bad (Album Version)
TTITLE1=Good Girls Go Bad (Cash Cash Remix)
TTITLE2=Good Girls Go Bad (Funk Generation Club Mix)
TTITLE3=Good Girls Go Bad (Funk Generation Edit)
TTITLE4=Good Girls Go Bad (Funk Generation Instrumental)
TTITLE5=Good Girls Go Bad (MoAzza Club Mix)
TTITLE6=Good Girls Go Bad (MoAzza Edit)
TTITLE7=Good Girls Go Bad (MoAzza Instrumental)
TTITLE8=Good Girls Go Bad (Suave Suarez On Pleasure Ryland Remix)
EXTD=
EXTT0=
EXTT1=
EXTT2=
EXTT3=
EXTT4=
EXTT5=
EXTT6=
EXTT7=
EXTT8=
PLAYORDER=
